<svg xmlns="http://www.w3.org/2000/svg" xmlns:xlink="http://www.w3.org/1999/xlink" width="500" zoomAndPan="magnify" viewBox="0 0 375 374.999991" height="500" preserveAspectRatio="xMidYMid meet" version="1.0"><defs><g/><clipPath id="1d0ba890c8"><path d="M 0 161.902344 L 375 161.902344 L 375 212.824219 L 0 212.824219 Z M 0 161.902344 " clip-rule="nonzero"/></clipPath></defs><rect x="-37.5" width="450" fill="#ffffff" y="-37.499999" height="449.999989" fill-opacity="1"/><rect x="-37.5" width="450" fill="#e6e6e6" y="-37.499999" height="449.999989" fill-opacity="1"/><path stroke-linecap="butt" transform="matrix(0.00181951, -0.749998, 0.749998, 0.00181951, 187.868284, 334.759051)" fill="none" stroke-linejoin="miter" d="M -0.00234777 0.498545 L 409.691583 0.499413 " stroke="#000000" stroke-width="1" stroke-opacity="1" stroke-miterlimit="4"/><g fill="#000000" fill-opacity="1"><g transform="translate(7.345683, 274.3037)"><g><path d="M 5.492188 -183.097656 L 5.492188 -158.378906 L 7.324219 -158.378906 C 7.324219 -158.929688 7.140625 -158.378906 7.140625 -159.113281 C 7.140625 -171.378906 30.210938 -181.265625 61.703125 -181.265625 L 61.703125 -50.902344 C 61.703125 -14.832031 60.605469 -1.832031 44.859375 -1.832031 L 44.859375 0 L 92.648438 0 L 92.648438 -1.832031 C 76.902344 -1.832031 77.265625 -14.832031 77.265625 -50.902344 L 77.265625 -181.265625 C 108.757812 -181.265625 131.828125 -171.378906 131.828125 -159.113281 C 131.828125 -158.378906 131.648438 -158.929688 131.648438 -158.378906 L 133.476562 -158.378906 L 133.476562 -183.097656 Z M 5.492188 -183.097656 "/></g></g></g><g fill="#000000" fill-opacity="1"><g transform="translate(199.950133, 274.3037)"><g><path d="M 54.929688 0 L 54.929688 -1.832031 C 39.183594 -1.832031 38.085938 -14.832031 38.085938 -50.902344 L 38.085938 -89.902344 C 38.085938 -98.507812 41.378906 -106.011719 50.902344 -106.011719 C 63.902344 -106.011719 78.367188 -89.902344 100.703125 -89.902344 C 115.167969 -89.902344 124.140625 -99.238281 124.140625 -110.042969 L 122.308594 -110.042969 C 122.308594 -103.632812 115.71875 -99.605469 108.757812 -99.605469 C 92.648438 -99.605469 77.449219 -110.957031 59.324219 -110.957031 C 48.335938 -110.957031 40.28125 -105.097656 38.085938 -100.152344 L 38.085938 -132.195312 C 38.085938 -168.265625 39.183594 -181.265625 54.929688 -181.265625 L 54.929688 -183.097656 L 5.492188 -183.097656 L 5.492188 -181.265625 C 21.238281 -181.265625 22.335938 -168.265625 22.335938 -132.195312 L 22.335938 -50.902344 C 22.335938 -14.832031 21.238281 -1.832031 5.492188 -1.832031 L 5.492188 0 Z M 112.789062 -181.265625 C 128.535156 -181.265625 129.632812 -168.265625 129.632812 -132.195312 L 129.632812 -50.902344 C 129.632812 -14.832031 128.535156 -1.832031 112.789062 -1.832031 L 112.789062 0 L 162.222656 0 L 162.222656 -1.832031 C 146.476562 -1.832031 145.378906 -14.832031 145.378906 -50.902344 L 145.378906 -132.195312 C 145.378906 -168.265625 146.476562 -181.265625 162.222656 -181.265625 L 162.222656 -183.097656 L 112.789062 -183.097656 Z M 112.789062 -181.265625 "/></g></g></g><g clip-path="url(#1d0ba890c8)"><path fill="#e6e6e6" d="M -28.875 161.902344 L 408.335938 161.902344 L 408.335938 212.824219 L -28.875 212.824219 Z M -28.875 161.902344 " fill-opacity="1" fill-rule="nonzero"/></g><g fill="#000000" fill-opacity="1"><g transform="translate(45.838888, 196.67756)"><g><path d="M 7.21875 -18.359375 L 0.109375 -18.359375 L 0.109375 -20.21875 L 16.453125 -20.21875 L 16.453125 -18.359375 L 9.359375 -18.359375 L 9.359375 0 L 7.21875 0 Z M 7.21875 -18.359375 "/></g></g></g><g fill="#000000" fill-opacity="1"><g transform="translate(71.619249, 196.67756)"><g><path d="M 17.09375 0 L 12.46875 -6.5 C 11.945312 -6.4375 11.410156 -6.40625 10.859375 -6.40625 L 5.421875 -6.40625 L 5.421875 0 L 3.296875 0 L 3.296875 -20.21875 L 10.859375 -20.21875 C 13.429688 -20.21875 15.445312 -19.597656 16.90625 -18.359375 C 18.375 -17.128906 19.109375 -15.4375 19.109375 -13.28125 C 19.109375 -11.707031 18.707031 -10.375 17.90625 -9.28125 C 17.113281 -8.195312 15.976562 -7.414062 14.5 -6.9375 L 19.4375 0 Z M 10.796875 -8.234375 C 12.796875 -8.234375 14.328125 -8.675781 15.390625 -9.5625 C 16.453125 -10.445312 16.984375 -11.6875 16.984375 -13.28125 C 16.984375 -14.914062 16.453125 -16.171875 15.390625 -17.046875 C 14.328125 -17.921875 12.796875 -18.359375 10.796875 -18.359375 L 5.421875 -18.359375 L 5.421875 -8.234375 Z M 10.796875 -8.234375 "/></g></g></g><g fill="#000000" fill-opacity="1"><g transform="translate(101.700158, 196.67756)"><g><path d="M 3.296875 -20.21875 L 5.421875 -20.21875 L 5.421875 0 L 3.296875 0 Z M 3.296875 -20.21875 "/></g></g></g><g fill="#000000" fill-opacity="1"><g transform="translate(119.629834, 196.67756)"><g><path d="M 20.09375 -20.21875 L 11.140625 0 L 9.03125 0 L 0.09375 -20.21875 L 2.390625 -20.21875 L 10.140625 -2.65625 L 17.9375 -20.21875 Z M 20.09375 -20.21875 "/></g></g></g><g fill="#000000" fill-opacity="1"><g transform="translate(148.989181, 196.67756)"><g><path d="M 3.296875 -20.21875 L 5.421875 -20.21875 L 5.421875 0 L 3.296875 0 Z M 3.296875 -20.21875 "/></g></g></g><g fill="#000000" fill-opacity="1"><g transform="translate(166.918857, 196.67756)"><g><path d="M 15.96875 -5.40625 L 4.703125 -5.40625 L 2.28125 0 L 0.0625 0 L 9.296875 -20.21875 L 11.40625 -20.21875 L 20.640625 0 L 18.390625 0 Z M 15.1875 -7.125 L 10.34375 -17.984375 L 5.484375 -7.125 Z M 15.1875 -7.125 "/></g></g></g><g fill="#000000" fill-opacity="1"><g transform="translate(196.826598, 196.67756)"><g/></g></g><g fill="#000000" fill-opacity="1"><g transform="translate(213.601748, 196.67756)"><g><path d="M 20.1875 -20.21875 L 20.1875 0 L 18.078125 0 L 18.078125 -9.328125 L 5.421875 -9.328125 L 5.421875 0 L 3.296875 0 L 3.296875 -20.21875 L 5.421875 -20.21875 L 5.421875 -11.203125 L 18.078125 -11.203125 L 18.078125 -20.21875 Z M 20.1875 -20.21875 "/></g></g></g><g fill="#000000" fill-opacity="1"><g transform="translate(246.280306, 196.67756)"><g><path d="M 17.578125 -1.84375 L 17.578125 0 L 3.296875 0 L 3.296875 -20.21875 L 17.15625 -20.21875 L 17.15625 -18.359375 L 5.421875 -18.359375 L 5.421875 -11.171875 L 15.875 -11.171875 L 15.875 -9.359375 L 5.421875 -9.359375 L 5.421875 -1.84375 Z M 17.578125 -1.84375 "/></g></g></g><g fill="#000000" fill-opacity="1"><g transform="translate(274.802626, 196.67756)"><g><path d="M 17.09375 0 L 12.46875 -6.5 C 11.945312 -6.4375 11.410156 -6.40625 10.859375 -6.40625 L 5.421875 -6.40625 L 5.421875 0 L 3.296875 0 L 3.296875 -20.21875 L 10.859375 -20.21875 C 13.429688 -20.21875 15.445312 -19.597656 16.90625 -18.359375 C 18.375 -17.128906 19.109375 -15.4375 19.109375 -13.28125 C 19.109375 -11.707031 18.707031 -10.375 17.90625 -9.28125 C 17.113281 -8.195312 15.976562 -7.414062 14.5 -6.9375 L 19.4375 0 Z M 10.796875 -8.234375 C 12.796875 -8.234375 14.328125 -8.675781 15.390625 -9.5625 C 16.453125 -10.445312 16.984375 -11.6875 16.984375 -13.28125 C 16.984375 -14.914062 16.453125 -16.171875 15.390625 -17.046875 C 14.328125 -17.921875 12.796875 -18.359375 10.796875 -18.359375 L 5.421875 -18.359375 L 5.421875 -8.234375 Z M 10.796875 -8.234375 "/></g></g></g><g fill="#000000" fill-opacity="1"><g transform="translate(304.883547, 196.67756)"><g><path d="M 12.125 0.171875 C 10.125 0.171875 8.3125 -0.273438 6.6875 -1.171875 C 5.0625 -2.066406 3.789062 -3.289062 2.875 -4.84375 C 1.957031 -6.40625 1.5 -8.160156 1.5 -10.109375 C 1.5 -12.046875 1.957031 -13.796875 2.875 -15.359375 C 3.789062 -16.921875 5.0625 -18.148438 6.6875 -19.046875 C 8.3125 -19.941406 10.125 -20.390625 12.125 -20.390625 C 14.125 -20.390625 15.925781 -19.945312 17.53125 -19.0625 C 19.144531 -18.175781 20.410156 -16.945312 21.328125 -15.375 C 22.253906 -13.800781 22.71875 -12.046875 22.71875 -10.109375 C 22.71875 -8.160156 22.253906 -6.398438 21.328125 -4.828125 C 20.410156 -3.265625 19.144531 -2.039062 17.53125 -1.15625 C 15.925781 -0.269531 14.125 0.171875 12.125 0.171875 Z M 12.125 -1.734375 C 13.726562 -1.734375 15.171875 -2.09375 16.453125 -2.8125 C 17.742188 -3.53125 18.753906 -4.53125 19.484375 -5.8125 C 20.222656 -7.09375 20.59375 -8.523438 20.59375 -10.109375 C 20.59375 -11.679688 20.222656 -13.109375 19.484375 -14.390625 C 18.753906 -15.671875 17.742188 -16.671875 16.453125 -17.390625 C 15.171875 -18.117188 13.726562 -18.484375 12.125 -18.484375 C 10.53125 -18.484375 9.082031 -18.117188 7.78125 -17.390625 C 6.476562 -16.671875 5.457031 -15.671875 4.71875 -14.390625 C 3.976562 -13.109375 3.609375 -11.679688 3.609375 -10.109375 C 3.609375 -8.523438 3.976562 -7.09375 4.71875 -5.8125 C 5.457031 -4.53125 6.476562 -3.53125 7.78125 -2.8125 C 9.082031 -2.09375 10.53125 -1.734375 12.125 -1.734375 Z M 12.125 -1.734375 "/></g></g></g></svg>